<mxfile host="app.diagrams.net" modified="2022-07-27T15:14:23.726Z" agent="5.0 (Windows NT 10.0; Win64; x64) AppleWebKit/537.36 (KHTML, like Gecko) Chrome/103.0.0.0 Safari/537.36" etag="wKpEln-GRRa21T6AfpCc" version="16.6.7" type="github">
  <diagram name="Page-1" id="42789a77-a242-8287-6e28-9cd8cfd52e62">
    <mxGraphModel dx="1422" dy="794" grid="1" gridSize="10" guides="1" tooltips="1" connect="1" arrows="1" fold="1" page="1" pageScale="1" pageWidth="1100" pageHeight="850" background="none" math="0" shadow="0">
      <root>
        <mxCell id="0" />
        <mxCell id="1" parent="0" />
        <mxCell id="kYnOUyKq17uiCrWHGg6R-2" style="edgeStyle=orthogonalEdgeStyle;rounded=0;orthogonalLoop=1;jettySize=auto;html=1;entryX=0.75;entryY=0;entryDx=0;entryDy=0;exitX=0.75;exitY=1;exitDx=0;exitDy=0;" edge="1" parent="1" source="kYnOUyKq17uiCrWHGg6R-1" target="kYnOUyKq17uiCrWHGg6R-3">
          <mxGeometry relative="1" as="geometry">
            <mxPoint x="110" y="240" as="targetPoint" />
          </mxGeometry>
        </mxCell>
        <mxCell id="kYnOUyKq17uiCrWHGg6R-13" style="rounded=0;orthogonalLoop=1;jettySize=auto;html=1;exitX=1;exitY=1;exitDx=0;exitDy=0;entryX=0;entryY=0;entryDx=0;entryDy=0;" edge="1" parent="1" source="kYnOUyKq17uiCrWHGg6R-1" target="kYnOUyKq17uiCrWHGg6R-12">
          <mxGeometry relative="1" as="geometry" />
        </mxCell>
        <mxCell id="kYnOUyKq17uiCrWHGg6R-69" style="rounded=0;orthogonalLoop=1;jettySize=auto;html=1;strokeWidth=1;exitX=0;exitY=0.25;exitDx=0;exitDy=0;entryX=0;entryY=0.75;entryDx=0;entryDy=0;edgeStyle=orthogonalEdgeStyle;curved=1;" edge="1" parent="1" source="kYnOUyKq17uiCrWHGg6R-1" target="kYnOUyKq17uiCrWHGg6R-1">
          <mxGeometry relative="1" as="geometry">
            <mxPoint x="30" y="160" as="targetPoint" />
            <Array as="points">
              <mxPoint x="60" y="145" />
              <mxPoint x="60" y="155" />
            </Array>
          </mxGeometry>
        </mxCell>
        <mxCell id="kYnOUyKq17uiCrWHGg6R-75" style="edgeStyle=orthogonalEdgeStyle;rounded=0;orthogonalLoop=1;jettySize=auto;html=1;entryX=0;entryY=0.5;entryDx=0;entryDy=0;strokeWidth=1;curved=1;" edge="1" parent="1" source="kYnOUyKq17uiCrWHGg6R-1" target="kYnOUyKq17uiCrWHGg6R-4">
          <mxGeometry relative="1" as="geometry">
            <Array as="points">
              <mxPoint x="50" y="160" />
              <mxPoint x="50" y="310" />
            </Array>
          </mxGeometry>
        </mxCell>
        <mxCell id="kYnOUyKq17uiCrWHGg6R-1" value="&lt;b&gt;025000&lt;/b&gt;" style="rounded=0;whiteSpace=wrap;html=1;fillColor=#dae8fc;strokeColor=#6c8ebf;strokeWidth=2;" vertex="1" parent="1">
          <mxGeometry x="80" y="140" width="80" height="20" as="geometry" />
        </mxCell>
        <mxCell id="kYnOUyKq17uiCrWHGg6R-5" style="edgeStyle=orthogonalEdgeStyle;rounded=0;orthogonalLoop=1;jettySize=auto;html=1;exitX=0.75;exitY=1;exitDx=0;exitDy=0;entryX=0.75;entryY=0;entryDx=0;entryDy=0;" edge="1" parent="1" source="kYnOUyKq17uiCrWHGg6R-3" target="kYnOUyKq17uiCrWHGg6R-4">
          <mxGeometry relative="1" as="geometry" />
        </mxCell>
        <mxCell id="kYnOUyKq17uiCrWHGg6R-76" style="edgeStyle=orthogonalEdgeStyle;curved=1;rounded=0;orthogonalLoop=1;jettySize=auto;html=1;entryX=0.25;entryY=1;entryDx=0;entryDy=0;strokeWidth=1;exitX=0.25;exitY=0;exitDx=0;exitDy=0;" edge="1" parent="1" source="kYnOUyKq17uiCrWHGg6R-3" target="kYnOUyKq17uiCrWHGg6R-1">
          <mxGeometry relative="1" as="geometry" />
        </mxCell>
        <mxCell id="kYnOUyKq17uiCrWHGg6R-3" value="&lt;b&gt;092011&lt;/b&gt;" style="rounded=0;whiteSpace=wrap;html=1;fillColor=#dae8fc;strokeColor=#6c8ebf;strokeWidth=2;" vertex="1" parent="1">
          <mxGeometry x="80" y="220" width="80" height="20" as="geometry" />
        </mxCell>
        <mxCell id="kYnOUyKq17uiCrWHGg6R-15" style="edgeStyle=none;rounded=0;orthogonalLoop=1;jettySize=auto;html=1;exitX=0.5;exitY=1;exitDx=0;exitDy=0;entryX=0.5;entryY=0;entryDx=0;entryDy=0;" edge="1" parent="1" source="kYnOUyKq17uiCrWHGg6R-4" target="kYnOUyKq17uiCrWHGg6R-6">
          <mxGeometry relative="1" as="geometry" />
        </mxCell>
        <mxCell id="kYnOUyKq17uiCrWHGg6R-77" style="edgeStyle=orthogonalEdgeStyle;curved=1;rounded=0;orthogonalLoop=1;jettySize=auto;html=1;entryX=1;entryY=0.5;entryDx=0;entryDy=0;strokeWidth=1;exitX=1;exitY=1;exitDx=0;exitDy=0;" edge="1" parent="1" source="kYnOUyKq17uiCrWHGg6R-3" target="kYnOUyKq17uiCrWHGg6R-6">
          <mxGeometry relative="1" as="geometry">
            <mxPoint x="150" y="240" as="sourcePoint" />
            <Array as="points">
              <mxPoint x="200" y="240" />
              <mxPoint x="200" y="390" />
            </Array>
          </mxGeometry>
        </mxCell>
        <mxCell id="kYnOUyKq17uiCrWHGg6R-80" style="edgeStyle=orthogonalEdgeStyle;curved=1;rounded=0;orthogonalLoop=1;jettySize=auto;html=1;entryX=0.25;entryY=1;entryDx=0;entryDy=0;strokeWidth=1;exitX=0.25;exitY=0;exitDx=0;exitDy=0;" edge="1" parent="1" source="kYnOUyKq17uiCrWHGg6R-4" target="kYnOUyKq17uiCrWHGg6R-3">
          <mxGeometry relative="1" as="geometry" />
        </mxCell>
        <mxCell id="kYnOUyKq17uiCrWHGg6R-81" style="edgeStyle=orthogonalEdgeStyle;curved=1;rounded=0;orthogonalLoop=1;jettySize=auto;html=1;entryX=0;entryY=0;entryDx=0;entryDy=0;strokeWidth=1;exitX=0;exitY=1;exitDx=0;exitDy=0;" edge="1" parent="1" source="kYnOUyKq17uiCrWHGg6R-4" target="kYnOUyKq17uiCrWHGg6R-7">
          <mxGeometry relative="1" as="geometry">
            <Array as="points">
              <mxPoint x="50" y="320" />
              <mxPoint x="50" y="460" />
            </Array>
          </mxGeometry>
        </mxCell>
        <mxCell id="kYnOUyKq17uiCrWHGg6R-4" value="&lt;b&gt;092001(P)&lt;/b&gt;" style="rounded=0;whiteSpace=wrap;html=1;fillColor=#dae8fc;strokeColor=#6c8ebf;strokeWidth=2;" vertex="1" parent="1">
          <mxGeometry x="80" y="300" width="80" height="20" as="geometry" />
        </mxCell>
        <mxCell id="kYnOUyKq17uiCrWHGg6R-16" style="edgeStyle=none;rounded=0;orthogonalLoop=1;jettySize=auto;html=1;exitX=0.5;exitY=1;exitDx=0;exitDy=0;entryX=0.5;entryY=0;entryDx=0;entryDy=0;" edge="1" parent="1" source="kYnOUyKq17uiCrWHGg6R-6" target="kYnOUyKq17uiCrWHGg6R-7">
          <mxGeometry relative="1" as="geometry" />
        </mxCell>
        <mxCell id="kYnOUyKq17uiCrWHGg6R-6" value="&lt;b&gt;oven_F1&lt;/b&gt;" style="rounded=0;whiteSpace=wrap;html=1;fillColor=#dae8fc;strokeColor=#6c8ebf;strokeWidth=2;" vertex="1" parent="1">
          <mxGeometry x="80" y="380" width="80" height="20" as="geometry" />
        </mxCell>
        <mxCell id="kYnOUyKq17uiCrWHGg6R-17" style="edgeStyle=elbowEdgeStyle;rounded=0;orthogonalLoop=1;jettySize=auto;html=1;exitX=0.5;exitY=1;exitDx=0;exitDy=0;entryX=0.5;entryY=0;entryDx=0;entryDy=0;" edge="1" parent="1" source="kYnOUyKq17uiCrWHGg6R-7" target="kYnOUyKq17uiCrWHGg6R-8">
          <mxGeometry relative="1" as="geometry" />
        </mxCell>
        <mxCell id="kYnOUyKq17uiCrWHGg6R-85" style="edgeStyle=orthogonalEdgeStyle;curved=1;rounded=0;orthogonalLoop=1;jettySize=auto;html=1;entryX=0;entryY=0;entryDx=0;entryDy=0;strokeWidth=1;exitX=0;exitY=1;exitDx=0;exitDy=0;" edge="1" parent="1" source="kYnOUyKq17uiCrWHGg6R-7" target="kYnOUyKq17uiCrWHGg6R-9">
          <mxGeometry relative="1" as="geometry">
            <Array as="points">
              <mxPoint x="50" y="480" />
              <mxPoint x="50" y="600" />
            </Array>
          </mxGeometry>
        </mxCell>
        <mxCell id="kYnOUyKq17uiCrWHGg6R-7" value="&lt;b&gt;092001&lt;/b&gt;" style="rounded=0;whiteSpace=wrap;html=1;fillColor=#dae8fc;strokeColor=#6c8ebf;strokeWidth=2;" vertex="1" parent="1">
          <mxGeometry x="80" y="460" width="80" height="20" as="geometry" />
        </mxCell>
        <mxCell id="kYnOUyKq17uiCrWHGg6R-19" style="edgeStyle=elbowEdgeStyle;rounded=0;orthogonalLoop=1;jettySize=auto;html=1;entryX=0.75;entryY=0;entryDx=0;entryDy=0;exitX=0.75;exitY=1;exitDx=0;exitDy=0;" edge="1" parent="1" source="kYnOUyKq17uiCrWHGg6R-8" target="kYnOUyKq17uiCrWHGg6R-9">
          <mxGeometry relative="1" as="geometry" />
        </mxCell>
        <mxCell id="kYnOUyKq17uiCrWHGg6R-86" style="edgeStyle=orthogonalEdgeStyle;curved=1;rounded=0;orthogonalLoop=1;jettySize=auto;html=1;entryX=1;entryY=0;entryDx=0;entryDy=0;strokeWidth=1;exitX=1;exitY=1;exitDx=0;exitDy=0;" edge="1" parent="1" source="kYnOUyKq17uiCrWHGg6R-8" target="kYnOUyKq17uiCrWHGg6R-10">
          <mxGeometry relative="1" as="geometry">
            <Array as="points">
              <mxPoint x="190" y="560" />
              <mxPoint x="190" y="660" />
            </Array>
          </mxGeometry>
        </mxCell>
        <mxCell id="kYnOUyKq17uiCrWHGg6R-8" value="&lt;b&gt;092012&lt;/b&gt;" style="rounded=0;whiteSpace=wrap;html=1;fillColor=#dae8fc;strokeColor=#6c8ebf;strokeWidth=2;" vertex="1" parent="1">
          <mxGeometry x="80" y="540" width="80" height="20" as="geometry" />
        </mxCell>
        <mxCell id="kYnOUyKq17uiCrWHGg6R-20" style="edgeStyle=elbowEdgeStyle;rounded=0;orthogonalLoop=1;jettySize=auto;html=1;entryX=0.5;entryY=0;entryDx=0;entryDy=0;" edge="1" parent="1" source="kYnOUyKq17uiCrWHGg6R-9" target="kYnOUyKq17uiCrWHGg6R-10">
          <mxGeometry relative="1" as="geometry" />
        </mxCell>
        <mxCell id="kYnOUyKq17uiCrWHGg6R-88" style="edgeStyle=orthogonalEdgeStyle;curved=1;rounded=0;orthogonalLoop=1;jettySize=auto;html=1;entryX=0.25;entryY=1;entryDx=0;entryDy=0;strokeWidth=1;exitX=0.25;exitY=0;exitDx=0;exitDy=0;" edge="1" parent="1" source="kYnOUyKq17uiCrWHGg6R-9" target="kYnOUyKq17uiCrWHGg6R-8">
          <mxGeometry relative="1" as="geometry" />
        </mxCell>
        <mxCell id="kYnOUyKq17uiCrWHGg6R-9" value="&lt;b&gt;092002(P)&lt;/b&gt;" style="rounded=0;whiteSpace=wrap;html=1;fillColor=#dae8fc;strokeColor=#6c8ebf;strokeWidth=2;" vertex="1" parent="1">
          <mxGeometry x="80" y="600" width="80" height="20" as="geometry" />
        </mxCell>
        <mxCell id="kYnOUyKq17uiCrWHGg6R-21" style="edgeStyle=elbowEdgeStyle;rounded=0;orthogonalLoop=1;jettySize=auto;html=1;entryX=0.5;entryY=0;entryDx=0;entryDy=0;" edge="1" parent="1" source="kYnOUyKq17uiCrWHGg6R-10" target="kYnOUyKq17uiCrWHGg6R-11">
          <mxGeometry relative="1" as="geometry" />
        </mxCell>
        <mxCell id="kYnOUyKq17uiCrWHGg6R-10" value="&lt;b&gt;oven_F2&lt;/b&gt;" style="rounded=0;whiteSpace=wrap;html=1;fillColor=#dae8fc;strokeColor=#6c8ebf;strokeWidth=2;" vertex="1" parent="1">
          <mxGeometry x="80" y="660" width="80" height="20" as="geometry" />
        </mxCell>
        <mxCell id="kYnOUyKq17uiCrWHGg6R-23" style="edgeStyle=orthogonalEdgeStyle;rounded=0;orthogonalLoop=1;jettySize=auto;html=1;entryX=0.5;entryY=1;entryDx=0;entryDy=0;elbow=vertical;" edge="1" parent="1" source="kYnOUyKq17uiCrWHGg6R-11" target="kYnOUyKq17uiCrWHGg6R-22">
          <mxGeometry relative="1" as="geometry" />
        </mxCell>
        <mxCell id="kYnOUyKq17uiCrWHGg6R-11" value="&lt;b&gt;092002&lt;/b&gt;" style="rounded=0;whiteSpace=wrap;html=1;fillColor=#dae8fc;strokeColor=#6c8ebf;strokeWidth=2;" vertex="1" parent="1">
          <mxGeometry x="80" y="720" width="80" height="20" as="geometry" />
        </mxCell>
        <mxCell id="kYnOUyKq17uiCrWHGg6R-14" style="edgeStyle=none;rounded=0;orthogonalLoop=1;jettySize=auto;html=1;exitX=0;exitY=1;exitDx=0;exitDy=0;entryX=1;entryY=0;entryDx=0;entryDy=0;" edge="1" parent="1" source="kYnOUyKq17uiCrWHGg6R-12" target="kYnOUyKq17uiCrWHGg6R-3">
          <mxGeometry relative="1" as="geometry" />
        </mxCell>
        <mxCell id="kYnOUyKq17uiCrWHGg6R-12" value="&lt;b&gt;420010&lt;/b&gt;" style="rounded=0;whiteSpace=wrap;html=1;fillColor=#dae8fc;strokeColor=#6c8ebf;strokeWidth=2;" vertex="1" parent="1">
          <mxGeometry x="200" y="180" width="80" height="20" as="geometry" />
        </mxCell>
        <mxCell id="kYnOUyKq17uiCrWHGg6R-40" style="edgeStyle=orthogonalEdgeStyle;rounded=0;orthogonalLoop=1;jettySize=auto;html=1;entryX=0;entryY=0.5;entryDx=0;entryDy=0;exitX=0.5;exitY=0;exitDx=0;exitDy=0;" edge="1" parent="1" source="kYnOUyKq17uiCrWHGg6R-22" target="kYnOUyKq17uiCrWHGg6R-25">
          <mxGeometry relative="1" as="geometry" />
        </mxCell>
        <mxCell id="kYnOUyKq17uiCrWHGg6R-22" value="&lt;b&gt;777707&lt;/b&gt;" style="rounded=0;whiteSpace=wrap;html=1;fillColor=#fff2cc;strokeColor=#d6b656;strokeWidth=2;" vertex="1" parent="1">
          <mxGeometry x="310" y="415" width="80" height="20" as="geometry" />
        </mxCell>
        <mxCell id="kYnOUyKq17uiCrWHGg6R-39" style="edgeStyle=none;rounded=0;orthogonalLoop=1;jettySize=auto;html=1;entryX=0.5;entryY=0;entryDx=0;entryDy=0;elbow=vertical;" edge="1" parent="1" source="kYnOUyKq17uiCrWHGg6R-25" target="kYnOUyKq17uiCrWHGg6R-27">
          <mxGeometry relative="1" as="geometry" />
        </mxCell>
        <mxCell id="kYnOUyKq17uiCrWHGg6R-25" value="&lt;b&gt;120000&lt;/b&gt;" style="rounded=0;whiteSpace=wrap;html=1;fillColor=#fff2cc;strokeColor=#d6b656;strokeWidth=2;" vertex="1" parent="1">
          <mxGeometry x="480" y="140" width="80" height="20" as="geometry" />
        </mxCell>
        <mxCell id="kYnOUyKq17uiCrWHGg6R-38" style="edgeStyle=none;rounded=0;orthogonalLoop=1;jettySize=auto;html=1;entryX=0.5;entryY=0;entryDx=0;entryDy=0;elbow=vertical;" edge="1" parent="1" source="kYnOUyKq17uiCrWHGg6R-27" target="kYnOUyKq17uiCrWHGg6R-28">
          <mxGeometry relative="1" as="geometry" />
        </mxCell>
        <mxCell id="kYnOUyKq17uiCrWHGg6R-27" value="&lt;b&gt;091005&lt;/b&gt;" style="rounded=0;whiteSpace=wrap;html=1;fillColor=#fff2cc;strokeColor=#d6b656;strokeWidth=2;" vertex="1" parent="1">
          <mxGeometry x="480" y="220" width="80" height="20" as="geometry" />
        </mxCell>
        <mxCell id="kYnOUyKq17uiCrWHGg6R-35" style="edgeStyle=none;rounded=0;orthogonalLoop=1;jettySize=auto;html=1;entryX=0.5;entryY=0;entryDx=0;entryDy=0;elbow=vertical;exitX=1;exitY=1;exitDx=0;exitDy=0;" edge="1" parent="1" source="kYnOUyKq17uiCrWHGg6R-28" target="kYnOUyKq17uiCrWHGg6R-30">
          <mxGeometry relative="1" as="geometry" />
        </mxCell>
        <mxCell id="kYnOUyKq17uiCrWHGg6R-37" style="edgeStyle=none;rounded=0;orthogonalLoop=1;jettySize=auto;html=1;entryX=0.5;entryY=0;entryDx=0;entryDy=0;elbow=vertical;" edge="1" parent="1" source="kYnOUyKq17uiCrWHGg6R-28" target="kYnOUyKq17uiCrWHGg6R-29">
          <mxGeometry relative="1" as="geometry" />
        </mxCell>
        <mxCell id="kYnOUyKq17uiCrWHGg6R-28" value="&lt;b&gt;091002&lt;/b&gt;" style="rounded=0;whiteSpace=wrap;html=1;fillColor=#fff2cc;strokeColor=#d6b656;strokeWidth=2;" vertex="1" parent="1">
          <mxGeometry x="480" y="290" width="80" height="20" as="geometry" />
        </mxCell>
        <mxCell id="kYnOUyKq17uiCrWHGg6R-42" style="rounded=0;orthogonalLoop=1;jettySize=auto;html=1;entryX=0.5;entryY=0;entryDx=0;entryDy=0;" edge="1" parent="1" source="kYnOUyKq17uiCrWHGg6R-29" target="kYnOUyKq17uiCrWHGg6R-41">
          <mxGeometry relative="1" as="geometry" />
        </mxCell>
        <mxCell id="kYnOUyKq17uiCrWHGg6R-29" value="&lt;b&gt;900100&lt;/b&gt;" style="rounded=0;whiteSpace=wrap;html=1;fillColor=#fff2cc;strokeColor=#d6b656;strokeWidth=2;" vertex="1" parent="1">
          <mxGeometry x="480" y="460" width="80" height="20" as="geometry" />
        </mxCell>
        <mxCell id="kYnOUyKq17uiCrWHGg6R-33" style="edgeStyle=orthogonalEdgeStyle;rounded=0;orthogonalLoop=1;jettySize=auto;html=1;entryX=0.5;entryY=0;entryDx=0;entryDy=0;elbow=vertical;" edge="1" parent="1" source="kYnOUyKq17uiCrWHGg6R-30" target="kYnOUyKq17uiCrWHGg6R-31">
          <mxGeometry relative="1" as="geometry" />
        </mxCell>
        <mxCell id="kYnOUyKq17uiCrWHGg6R-30" value="&lt;b&gt;431000&lt;/b&gt;" style="rounded=0;whiteSpace=wrap;html=1;fillColor=#fff2cc;strokeColor=#d6b656;strokeWidth=2;" vertex="1" parent="1">
          <mxGeometry x="560" y="350" width="80" height="20" as="geometry" />
        </mxCell>
        <mxCell id="kYnOUyKq17uiCrWHGg6R-34" style="rounded=0;orthogonalLoop=1;jettySize=auto;html=1;entryX=1;entryY=0.25;entryDx=0;entryDy=0;elbow=vertical;exitX=0.5;exitY=1;exitDx=0;exitDy=0;" edge="1" parent="1" source="kYnOUyKq17uiCrWHGg6R-31" target="kYnOUyKq17uiCrWHGg6R-29">
          <mxGeometry relative="1" as="geometry" />
        </mxCell>
        <mxCell id="kYnOUyKq17uiCrWHGg6R-31" value="&lt;b&gt;430020&lt;/b&gt;" style="rounded=0;whiteSpace=wrap;html=1;fillColor=#fff2cc;strokeColor=#d6b656;strokeWidth=2;" vertex="1" parent="1">
          <mxGeometry x="560" y="405" width="80" height="20" as="geometry" />
        </mxCell>
        <mxCell id="kYnOUyKq17uiCrWHGg6R-44" style="rounded=0;orthogonalLoop=1;jettySize=auto;html=1;entryX=0.5;entryY=0;entryDx=0;entryDy=0;exitX=0.5;exitY=1;exitDx=0;exitDy=0;" edge="1" parent="1" source="kYnOUyKq17uiCrWHGg6R-41" target="kYnOUyKq17uiCrWHGg6R-43">
          <mxGeometry relative="1" as="geometry" />
        </mxCell>
        <mxCell id="kYnOUyKq17uiCrWHGg6R-41" value="&lt;b&gt;430010&lt;/b&gt;" style="rounded=0;whiteSpace=wrap;html=1;fillColor=#fff2cc;strokeColor=#d6b656;strokeWidth=2;" vertex="1" parent="1">
          <mxGeometry x="480" y="540" width="80" height="20" as="geometry" />
        </mxCell>
        <mxCell id="kYnOUyKq17uiCrWHGg6R-46" style="edgeStyle=orthogonalEdgeStyle;rounded=0;orthogonalLoop=1;jettySize=auto;html=1;entryX=0.5;entryY=1;entryDx=0;entryDy=0;exitX=0.5;exitY=1;exitDx=0;exitDy=0;" edge="1" parent="1" source="kYnOUyKq17uiCrWHGg6R-43" target="kYnOUyKq17uiCrWHGg6R-45">
          <mxGeometry relative="1" as="geometry" />
        </mxCell>
        <mxCell id="kYnOUyKq17uiCrWHGg6R-43" value="&lt;b&gt;022100&lt;/b&gt;" style="rounded=0;whiteSpace=wrap;html=1;fillColor=#fff2cc;strokeColor=#d6b656;strokeWidth=2;" vertex="1" parent="1">
          <mxGeometry x="480" y="600" width="80" height="20" as="geometry" />
        </mxCell>
        <mxCell id="kYnOUyKq17uiCrWHGg6R-48" style="edgeStyle=orthogonalEdgeStyle;rounded=0;orthogonalLoop=1;jettySize=auto;html=1;entryX=0.5;entryY=1;entryDx=0;entryDy=0;" edge="1" parent="1" source="kYnOUyKq17uiCrWHGg6R-45" target="kYnOUyKq17uiCrWHGg6R-47">
          <mxGeometry relative="1" as="geometry" />
        </mxCell>
        <mxCell id="kYnOUyKq17uiCrWHGg6R-45" value="&lt;b&gt;022000&lt;/b&gt;" style="rounded=0;whiteSpace=wrap;html=1;fillColor=#fff2cc;strokeColor=#d6b656;strokeWidth=2;" vertex="1" parent="1">
          <mxGeometry x="680" y="460" width="80" height="20" as="geometry" />
        </mxCell>
        <mxCell id="kYnOUyKq17uiCrWHGg6R-50" style="edgeStyle=orthogonalEdgeStyle;rounded=0;orthogonalLoop=1;jettySize=auto;html=1;entryX=0.5;entryY=1;entryDx=0;entryDy=0;" edge="1" parent="1" source="kYnOUyKq17uiCrWHGg6R-47" target="kYnOUyKq17uiCrWHGg6R-49">
          <mxGeometry relative="1" as="geometry" />
        </mxCell>
        <mxCell id="kYnOUyKq17uiCrWHGg6R-47" value="&lt;b&gt;440001&lt;/b&gt;" style="rounded=0;whiteSpace=wrap;html=1;fillColor=#fff2cc;strokeColor=#d6b656;strokeWidth=2;" vertex="1" parent="1">
          <mxGeometry x="680" y="220" width="80" height="20" as="geometry" />
        </mxCell>
        <mxCell id="kYnOUyKq17uiCrWHGg6R-53" style="edgeStyle=none;rounded=0;orthogonalLoop=1;jettySize=auto;html=1;" edge="1" parent="1" source="kYnOUyKq17uiCrWHGg6R-49" target="kYnOUyKq17uiCrWHGg6R-52">
          <mxGeometry relative="1" as="geometry" />
        </mxCell>
        <mxCell id="kYnOUyKq17uiCrWHGg6R-49" value="&lt;b&gt;440000&lt;/b&gt;" style="rounded=0;whiteSpace=wrap;html=1;fillColor=#fff2cc;strokeColor=#d6b656;strokeWidth=2;" vertex="1" parent="1">
          <mxGeometry x="680" y="140" width="80" height="20" as="geometry" />
        </mxCell>
        <mxCell id="kYnOUyKq17uiCrWHGg6R-55" style="edgeStyle=none;rounded=0;orthogonalLoop=1;jettySize=auto;html=1;entryX=0.5;entryY=0;entryDx=0;entryDy=0;" edge="1" parent="1" source="kYnOUyKq17uiCrWHGg6R-52" target="kYnOUyKq17uiCrWHGg6R-54">
          <mxGeometry relative="1" as="geometry" />
        </mxCell>
        <mxCell id="kYnOUyKq17uiCrWHGg6R-52" value="&lt;b&gt;445001&lt;/b&gt;" style="rounded=0;whiteSpace=wrap;html=1;fillColor=#fff2cc;strokeColor=#d6b656;strokeWidth=2;" vertex="1" parent="1">
          <mxGeometry x="840" y="140" width="80" height="20" as="geometry" />
        </mxCell>
        <mxCell id="kYnOUyKq17uiCrWHGg6R-58" style="edgeStyle=none;rounded=0;orthogonalLoop=1;jettySize=auto;html=1;entryX=0.5;entryY=0;entryDx=0;entryDy=0;" edge="1" parent="1" source="kYnOUyKq17uiCrWHGg6R-54" target="kYnOUyKq17uiCrWHGg6R-56">
          <mxGeometry relative="1" as="geometry" />
        </mxCell>
        <mxCell id="kYnOUyKq17uiCrWHGg6R-54" value="&lt;b&gt;390401&lt;/b&gt;" style="rounded=0;whiteSpace=wrap;html=1;fillColor=#fff2cc;strokeColor=#d6b656;strokeWidth=2;" vertex="1" parent="1">
          <mxGeometry x="840" y="220" width="80" height="20" as="geometry" />
        </mxCell>
        <mxCell id="kYnOUyKq17uiCrWHGg6R-59" style="edgeStyle=none;rounded=0;orthogonalLoop=1;jettySize=auto;html=1;entryX=0.5;entryY=0;entryDx=0;entryDy=0;" edge="1" parent="1" source="kYnOUyKq17uiCrWHGg6R-56" target="kYnOUyKq17uiCrWHGg6R-57">
          <mxGeometry relative="1" as="geometry" />
        </mxCell>
        <mxCell id="kYnOUyKq17uiCrWHGg6R-56" value="&lt;b&gt;390001&lt;/b&gt;" style="rounded=0;whiteSpace=wrap;html=1;fillColor=#fff2cc;strokeColor=#d6b656;strokeWidth=2;" vertex="1" parent="1">
          <mxGeometry x="840" y="300" width="80" height="20" as="geometry" />
        </mxCell>
        <mxCell id="kYnOUyKq17uiCrWHGg6R-62" style="edgeStyle=none;rounded=0;orthogonalLoop=1;jettySize=auto;html=1;entryX=0.5;entryY=0;entryDx=0;entryDy=0;" edge="1" parent="1" source="kYnOUyKq17uiCrWHGg6R-57" target="kYnOUyKq17uiCrWHGg6R-60">
          <mxGeometry relative="1" as="geometry" />
        </mxCell>
        <mxCell id="kYnOUyKq17uiCrWHGg6R-57" value="&lt;b&gt;395002&lt;/b&gt;" style="rounded=0;whiteSpace=wrap;html=1;fillColor=#fff2cc;strokeColor=#d6b656;strokeWidth=2;" vertex="1" parent="1">
          <mxGeometry x="840" y="380" width="80" height="20" as="geometry" />
        </mxCell>
        <mxCell id="kYnOUyKq17uiCrWHGg6R-63" style="edgeStyle=none;rounded=0;orthogonalLoop=1;jettySize=auto;html=1;entryX=0.5;entryY=0;entryDx=0;entryDy=0;" edge="1" parent="1" source="kYnOUyKq17uiCrWHGg6R-60" target="kYnOUyKq17uiCrWHGg6R-61">
          <mxGeometry relative="1" as="geometry" />
        </mxCell>
        <mxCell id="kYnOUyKq17uiCrWHGg6R-60" value="&lt;b&gt;870000&lt;/b&gt;" style="rounded=0;whiteSpace=wrap;html=1;fillColor=#fff2cc;strokeColor=#d6b656;strokeWidth=2;" vertex="1" parent="1">
          <mxGeometry x="840" y="460" width="80" height="20" as="geometry" />
        </mxCell>
        <mxCell id="kYnOUyKq17uiCrWHGg6R-65" style="edgeStyle=none;rounded=0;orthogonalLoop=1;jettySize=auto;html=1;entryX=0.5;entryY=0;entryDx=0;entryDy=0;" edge="1" parent="1" source="kYnOUyKq17uiCrWHGg6R-61" target="kYnOUyKq17uiCrWHGg6R-64">
          <mxGeometry relative="1" as="geometry" />
        </mxCell>
        <mxCell id="kYnOUyKq17uiCrWHGg6R-61" value="&lt;b&gt;871000&lt;/b&gt;" style="rounded=0;whiteSpace=wrap;html=1;fillColor=#fff2cc;strokeColor=#d6b656;strokeWidth=2;" vertex="1" parent="1">
          <mxGeometry x="840" y="540" width="80" height="20" as="geometry" />
        </mxCell>
        <mxCell id="kYnOUyKq17uiCrWHGg6R-67" style="edgeStyle=none;rounded=0;orthogonalLoop=1;jettySize=auto;html=1;entryX=0.5;entryY=0;entryDx=0;entryDy=0;" edge="1" parent="1" source="kYnOUyKq17uiCrWHGg6R-64" target="kYnOUyKq17uiCrWHGg6R-66">
          <mxGeometry relative="1" as="geometry" />
        </mxCell>
        <mxCell id="kYnOUyKq17uiCrWHGg6R-64" value="&lt;b&gt;900002&lt;/b&gt;" style="rounded=0;whiteSpace=wrap;html=1;fillColor=#fff2cc;strokeColor=#d6b656;strokeWidth=2;" vertex="1" parent="1">
          <mxGeometry x="840" y="620" width="80" height="20" as="geometry" />
        </mxCell>
        <mxCell id="kYnOUyKq17uiCrWHGg6R-66" value="&lt;b&gt;Packaging&lt;/b&gt;" style="rounded=0;whiteSpace=wrap;html=1;fillColor=#fff2cc;strokeColor=#d6b656;strokeWidth=2;" vertex="1" parent="1">
          <mxGeometry x="840" y="700" width="80" height="20" as="geometry" />
        </mxCell>
        <mxCell id="kYnOUyKq17uiCrWHGg6R-68" style="edgeStyle=none;rounded=0;orthogonalLoop=1;jettySize=auto;html=1;entryX=0.5;entryY=0;entryDx=0;entryDy=0;strokeWidth=0;" edge="1" parent="1" source="kYnOUyKq17uiCrWHGg6R-1" target="kYnOUyKq17uiCrWHGg6R-1">
          <mxGeometry relative="1" as="geometry" />
        </mxCell>
        <mxCell id="kYnOUyKq17uiCrWHGg6R-78" style="rounded=0;orthogonalLoop=1;jettySize=auto;html=1;strokeWidth=1;edgeStyle=orthogonalEdgeStyle;curved=1;entryX=1;entryY=0.75;entryDx=0;entryDy=0;" edge="1" parent="1" target="kYnOUyKq17uiCrWHGg6R-3">
          <mxGeometry relative="1" as="geometry">
            <mxPoint x="160" y="230" as="targetPoint" />
            <mxPoint x="160" y="225" as="sourcePoint" />
            <Array as="points">
              <mxPoint x="180" y="225" />
              <mxPoint x="180" y="235" />
            </Array>
          </mxGeometry>
        </mxCell>
        <mxCell id="kYnOUyKq17uiCrWHGg6R-79" style="rounded=0;orthogonalLoop=1;jettySize=auto;html=1;strokeWidth=1;edgeStyle=orthogonalEdgeStyle;curved=1;exitX=1;exitY=0.25;exitDx=0;exitDy=0;entryX=1;entryY=0.75;entryDx=0;entryDy=0;" edge="1" parent="1" source="kYnOUyKq17uiCrWHGg6R-4" target="kYnOUyKq17uiCrWHGg6R-4">
          <mxGeometry relative="1" as="geometry">
            <mxPoint x="160" y="315" as="targetPoint" />
            <mxPoint x="160" y="305" as="sourcePoint" />
            <Array as="points">
              <mxPoint x="180" y="305" />
              <mxPoint x="180" y="315" />
            </Array>
          </mxGeometry>
        </mxCell>
        <mxCell id="kYnOUyKq17uiCrWHGg6R-83" style="rounded=0;orthogonalLoop=1;jettySize=auto;html=1;strokeWidth=1;exitX=0;exitY=0.25;exitDx=0;exitDy=0;entryX=0;entryY=0.75;entryDx=0;entryDy=0;edgeStyle=orthogonalEdgeStyle;curved=1;" edge="1" parent="1">
          <mxGeometry relative="1" as="geometry">
            <mxPoint x="80" y="395" as="targetPoint" />
            <mxPoint x="80" y="385" as="sourcePoint" />
            <Array as="points">
              <mxPoint x="60" y="385" />
              <mxPoint x="60" y="395" />
            </Array>
          </mxGeometry>
        </mxCell>
        <mxCell id="kYnOUyKq17uiCrWHGg6R-84" style="rounded=0;orthogonalLoop=1;jettySize=auto;html=1;strokeWidth=1;edgeStyle=orthogonalEdgeStyle;curved=1;exitX=1;exitY=0.25;exitDx=0;exitDy=0;entryX=1;entryY=0.75;entryDx=0;entryDy=0;" edge="1" parent="1">
          <mxGeometry relative="1" as="geometry">
            <mxPoint x="160" y="475" as="targetPoint" />
            <mxPoint x="160" y="465" as="sourcePoint" />
            <Array as="points">
              <mxPoint x="180" y="465" />
              <mxPoint x="180" y="475" />
            </Array>
          </mxGeometry>
        </mxCell>
        <mxCell id="kYnOUyKq17uiCrWHGg6R-87" style="rounded=0;orthogonalLoop=1;jettySize=auto;html=1;strokeWidth=1;edgeStyle=orthogonalEdgeStyle;curved=1;exitX=1;exitY=0.25;exitDx=0;exitDy=0;entryX=1;entryY=0.75;entryDx=0;entryDy=0;" edge="1" parent="1">
          <mxGeometry relative="1" as="geometry">
            <mxPoint x="160" y="615" as="targetPoint" />
            <mxPoint x="160" y="605" as="sourcePoint" />
            <Array as="points">
              <mxPoint x="180" y="605" />
              <mxPoint x="180" y="615" />
            </Array>
          </mxGeometry>
        </mxCell>
        <mxCell id="kYnOUyKq17uiCrWHGg6R-89" style="rounded=0;orthogonalLoop=1;jettySize=auto;html=1;strokeWidth=1;exitX=0;exitY=0.25;exitDx=0;exitDy=0;entryX=0;entryY=0.75;entryDx=0;entryDy=0;edgeStyle=orthogonalEdgeStyle;curved=1;" edge="1" parent="1">
          <mxGeometry relative="1" as="geometry">
            <mxPoint x="80" y="675" as="targetPoint" />
            <mxPoint x="80" y="665" as="sourcePoint" />
            <Array as="points">
              <mxPoint x="60" y="665" />
              <mxPoint x="60" y="675" />
            </Array>
          </mxGeometry>
        </mxCell>
      </root>
    </mxGraphModel>
  </diagram>
</mxfile>
